<?xml version="1.0" encoding="UTF-8"?>
<!DOCTYPE svg PUBLIC "-//W3C//DTD SVG 1.1//EN" "http://www.w3.org/Graphics/SVG/1.1/DTD/svg11.dtd">
<!-- Creator: CorelDRAW -->
<svg xmlns="http://www.w3.org/2000/svg" xml:space="preserve" width="48.1572mm" height="7.8486mm" version="1.1" style="shape-rendering:geometricPrecision; text-rendering:geometricPrecision; image-rendering:optimizeQuality; fill-rule:evenodd; clip-rule:evenodd"
viewBox="0 0 4363.01 711.08"
 xmlns:xlink="http://www.w3.org/1999/xlink"
 xmlns:xodm="http://www.corel.com/coreldraw/odm/2003">
 <defs>
  <style type="text/css">
   <![CDATA[
    .fil2 {fill:#782D2E}
    .fil1 {fill:#AC3336;fill-rule:nonzero}
    .fil0 {fill:#782D2E;fill-rule:nonzero}
   ]]>
  </style>
 </defs>
 <g id="Camada_x0020_1">
  <metadata id="CorelCorpID_0Corel-Layer"/>
  <g id="_2250951504208">
   <path class="fil0" d="M226.29 558.43c-43.47,0 -85.66,-5.36 -126.57,-16.11 -40.91,-10.74 -74.16,-25.05 -99.72,-42.95l49.86 -111.99c24.04,15.85 51.9,28.63 83.61,38.35 31.71,9.71 62.9,14.58 93.58,14.58 58.3,0 87.45,-14.58 87.45,-43.72 0,-15.35 -8.31,-26.73 -24.92,-34.14 -16.62,-7.42 -43.34,-15.21 -80.16,-23.39 -40.4,-8.7 -74.15,-18.03 -101.25,-28 -27.11,-9.97 -50.37,-25.95 -69.81,-47.94 -19.43,-22 -29.15,-51.65 -29.15,-88.99 0,-32.72 8.95,-62.26 26.84,-88.6 17.9,-26.34 44.62,-47.18 80.16,-62.51 35.54,-15.35 79.14,-23.01 130.79,-23.01 35.28,0 70.06,3.96 104.32,11.89 34.26,7.93 64.44,19.56 90.52,34.9l-46.79 112.76c-51.14,-27.61 -100.75,-41.42 -148.82,-41.42 -30.17,0 -52.16,4.48 -65.97,13.43 -13.81,8.95 -20.71,20.58 -20.71,34.91 0,14.31 8.18,25.05 24.54,32.22 16.36,7.16 42.7,14.57 79.01,22.24 40.91,8.69 74.79,18.03 101.63,28 26.85,9.97 50.12,25.83 69.81,47.56 19.69,21.73 29.54,51.26 29.54,88.6 0,32.22 -8.95,61.36 -26.85,87.45 -17.89,26.07 -44.75,46.91 -80.54,62.51 -35.8,15.6 -79.27,23.39 -130.4,23.39z"/>
   <path class="fil0" d="M1099.99 10.74l253.9 0c58.82,0 110.98,11 156.49,32.99 45.51,21.99 80.8,53.18 105.86,93.58 25.05,40.4 37.58,87.7 37.58,141.91 0,54.21 -12.53,101.51 -37.58,141.91 -25.06,40.4 -60.35,71.59 -105.86,93.58 -45.52,21.99 -97.68,32.99 -156.49,32.99l-253.9 0 0 -536.96zm247.76 415.76c46.02,0 82.97,-13.05 110.85,-39.12 27.87,-26.08 41.8,-62.13 41.8,-108.16 0,-46.02 -13.93,-82.08 -41.8,-108.16 -27.88,-26.08 -64.82,-39.13 -110.85,-39.13l-95.88 0 0 294.57 95.88 0z"/>
   <path class="fil1" d="M1638.87 702.39l0 -73.26c19.43,4.98 38.22,7.54 56.25,7.54 22.37,0 37.33,-6.13 44.74,-18.54 7.29,-12.4 11,-37.07 11,-74.27l0 -451.81 -66.74 0 0 -65.2 212.48 0 0 65.2 -66.74 0 0 455.77c0,39.12 -2.94,68.91 -8.82,89.37 -5.88,20.32 -19.94,37.72 -42.45,52.16 -22.37,14.45 -48.96,21.73 -79.65,21.73 -21.35,0 -41.3,-2.94 -60.09,-8.69z"/>
   <path class="fil1" d="M1904.27 366.4c0,-55.86 18.54,-101.89 55.49,-137.68 36.95,-35.93 81.95,-53.83 135.13,-53.83 52.16,0 97.03,17.64 134.49,53.06 37.46,35.42 56.13,81.57 56.13,138.45 0,57.02 -18.66,103.3 -56,138.84 -37.33,35.42 -82.2,53.18 -134.62,53.18 -53.95,0 -99.21,-18.02 -135.77,-53.95 -36.57,-36.05 -54.85,-82.07 -54.85,-138.07zm75.18 0.26c0,35.92 11.12,65.32 33.49,88.33 22.37,22.89 49.73,34.39 81.95,34.39 32.73,0 60.21,-11.63 82.34,-34.77 22.12,-23.27 33.11,-52.55 33.11,-87.95 0,-35.67 -11.24,-65.08 -33.75,-88.09 -22.5,-23.14 -49.73,-34.65 -81.69,-34.65 -33.49,0 -61.11,11.76 -82.84,35.42 -21.73,23.52 -32.6,52.67 -32.6,87.32z"/>
   <path class="fil1" d="M2739.75 484.03l0 63.66 -134.24 0 0 -41.55c-41.68,31.84 -81.57,47.68 -119.79,47.68 -24.16,0 -44.24,-5.36 -60.09,-15.98 -15.85,-10.61 -26.34,-24.29 -31.57,-41.16 -5.25,-16.88 -7.93,-43.99 -7.93,-81.44l0 -166.71 -51.4 0 0 -63.66 122.73 0 0 221.04c0,26.72 0.77,44.75 2.3,53.95 1.4,9.2 5.75,16.87 13.04,22.89 7.17,6.01 16.37,8.94 27.23,8.94 32.99,0 68.14,-15.72 105.48,-47.18l0 -195.98 -64.43 0 0 -63.66 135.77 0 0 299.16 62.9 0z"/>
   <path class="fil1" d="M2836.4 484.03l0 -235.49 -72.87 0 0 -63.66 129.63 0 0 81.69c8.05,-21.23 19.18,-38.87 33.37,-52.8 14.32,-14.07 29.41,-23.27 45.26,-27.61 15.98,-4.48 37.72,-6.65 65.2,-6.65l18.8 0 0 72.11 -14.2 0c-36.3,0 -63.28,3.58 -81.18,10.86 -17.9,7.16 -31.07,20.33 -39.76,39.37 -8.56,19.05 -12.91,53.32 -12.91,102.53l0 79.65 79.01 0 0 63.66 -223.22 0 0 -63.66 72.87 0z"/>
   <path class="fil1" d="M3245.13 184.87l0 44.1c45.64,-32.99 87.19,-49.48 124.91,-49.48 23.39,0 42.7,5.5 58.04,16.62 15.35,11.13 25.31,24.68 30.05,40.79 4.73,16.11 7.16,39.63 7.16,70.57l0 176.56 61.36 0 0 63.66 -132.7 0 0 -237.41c0,-27.49 -4.1,-45.39 -12.28,-53.83 -8.18,-8.31 -18.28,-12.53 -30.3,-12.53 -31.32,0 -66.74,15.34 -106.25,46.02l0 194.07 62.9 0 0 63.66 -197.91 0 0 -63.66 63.66 0 0 -235.49 -63.66 0 0 -63.66 135 0z"/>
   <path class="fil1" d="M3940.23 384.3l-304.53 0c4.48,33.62 17.77,60.73 39.63,81.57 21.99,20.84 49.99,31.19 84.12,31.19 49.6,0 88.99,-19.94 117.88,-59.83l62.9 27.74c-20.46,31.58 -47.05,55.1 -79.78,70.44 -32.72,15.35 -66.86,23.01 -102.66,23.01 -55.36,0 -102.79,-17.26 -142.17,-51.9 -39.25,-34.65 -58.93,-81.3 -58.93,-140.12 0,-55.61 19.18,-101.51 57.53,-137.56 38.35,-35.92 82.34,-53.95 131.94,-53.95 48.71,0 92.81,17.51 132.45,52.67 39.63,35.03 60.09,87.32 61.63,156.74zm-73.65 -51.4c-4.98,-25.57 -18.15,-48.71 -39.63,-69.42 -21.35,-20.71 -47.68,-31.07 -78.75,-31.07 -28.38,0 -52.67,9.33 -72.88,28 -20.19,18.8 -32.47,42.83 -36.95,72.49l228.2 0z"/>
   <polygon class="fil1" points="4123.68,541.43 4004.53,248.53 3944.18,248.53 3944.18,184.87 4123.68,184.87 4123.68,248.53 4080.22,248.53 4158.46,449.25 4235.29,248.53 4187.35,248.53 4187.35,184.87 4363.01,184.87 4363.01,248.53 4309.06,248.53 4129.69,710.31 4009.39,710.31 4009.39,648.18 4080.22,648.18 "/>
   <path class="fil2" d="M737.89 19.25c16.81,-6.19 34.45,-10.17 52.37,-10.98 22.36,-1 54.12,1.13 58.21,29.06 2.78,19.03 -11.73,45.19 -20.38,61.66 -14.08,26.84 -28.15,52.85 -39,81.27 -12.46,32.65 -20.08,66.51 -19.12,101.62 2.17,78.88 67.99,112.93 132.05,138.67 14.51,5.83 29.25,11.3 43.62,17.46 11.43,4.91 24.34,10.9 33.91,18.94 10.42,8.74 16.72,20.31 13.99,34.14 -2.83,14.33 -14.84,26.34 -25.68,35.29 -58.77,48.51 -203.92,25.2 -264.64,-11.85 -131.51,-80.23 -172.29,-252.22 -92.67,-383.72 29.85,-49.3 73.73,-87.94 126.48,-111.19l0.43 -0.19 0.43 -0.16z"/>
  </g>
 </g>
</svg>
